<?xml version="1.0" encoding="UTF-8"?>
<svg xmlns="http://www.w3.org/2000/svg" viewBox="0 0 1000 70" width="1000" height="70" xmlns:c2pa="http://c2pa.org/manifest"><metadata><c2pa:manifest>AAAWgmp1bWIAAAAeanVtZGMycGEAEQAQgAAAqgA4m3EDYzJwYQAAABZcanVtYgAAAEdqdW1kYzJtYQARABCAAACqADibcQN1cm46YzJwYTplYjU2MjI0Yy0wZDU4LTQ0NzYtOWE2Ny1kODVhMWI5YjE4ZTAAAAADl2p1bWIAAAApanVtZGMyYXMAEQAQgAAAqgA4m3EDYzJwYS5hc3NlcnRpb25zAAAAALxqdW1iAAAARGp1bWRjYm9yABEAEIAAAKoAOJtxE2MycGEuaW5ncmVkaWVudC52MwAAAAAYYzJzaObXN5mNyo/OQ/1rXgP9VfsAAABwY2JvcqNpZGM6Zm9ybWF0bWltYWdlL3N2Zyt4bWxqaW5zdGFuY2VJRHgseG1wOmlpZDo5NzNmNGUxYS1kMDIzLTRmM2YtOGIyYi0wYzViMWQ5MDVhMTdscmVsYXRpb25zaGlwaHBhcmVudE9mAAAB4mp1bWIAAABBanVtZGNib3IAEQAQgAAAqgA4m3ETYzJwYS5hY3Rpb25zLnYyAAAAABhjMnNo/B2h1nXnJPXfSp3JsHEhUQAAAZljYm9yomdhY3Rpb25zgqJmYWN0aW9ua2MycGEub3BlbmVkanBhcmFtZXRlcnOha2luZ3JlZGllbnRzgaJjdXJseC1zZWxmI2p1bWJmPWMycGEuYXNzZXJ0aW9ucy9jMnBhLmluZ3JlZGllbnQudjNkaGFzaFggGd4wyHQOwK4mmgFmYfVYyhEATAXPevQnhH9/jC2Xim2kZmFjdGlvbngdY29tLmFudGhyb3BpYy5jbGF1ZGUucHJvdmlkZWRqcGFyYW1ldGVyc6F4H2NvbS5hbnRocm9waWMub3JpZ2luLWNvbmZpZGVuY2VndW5rbm93bmtkZXNjcmlwdGlvbnhmQ2xhdWRlIHByb3ZpZGVkIHRoaXMgZmlsZSBhdCB0aGUgcmVxdWVzdCBvZiBhIHVzZXIgYW5kIG1heSBoYXZlIGNyZWF0ZWQgb3IgbW9kaWZpZWQgdGhlIGZpbGUgY29udGVudHMubXNvZnR3YXJlQWdlbnShZG5hbWVmQ2xhdWRlcmFsbEFjdGlvbnNJbmNsdWRlZPUAAADIanVtYgAAAEBqdW1kY2JvcgARABCAAACqADibcRNjMnBhLmhhc2guZGF0YQAAAAAYYzJzaLz6fqC/mGYZ5/3RDB+Q85IAAACAY2JvcqVjYWxnZnNoYTI1NmNwYWRNAAAAAAAAAAAAAAAAAGRoYXNoWCDWtJmaqCSK6rIXX6Obi5O/NcZ8fi7fthy57TRiiNxCimRuYW1lbmp1bWJmIG1hbmlmZXN0amV4Y2x1c2lvbnOBomVzdGFydBi9Zmxlbmd0aBkeBAAAAj5qdW1iAAAAJ2p1bWRjMmNsABEAEIAAAKoAOJtxA2MycGEuY2xhaW0udjIAAAACD2Nib3KlY2FsZ2ZzaGEyNTZpc2lnbmF0dXJleE1zZWxmI2p1bWJmPS9jMnBhL3VybjpjMnBhOmViNTYyMjRjLTBkNTgtNDQ3Ni05YTY3LWQ4NWExYjliMThlMC9jMnBhLnNpZ25hdHVyZWppbnN0YW5jZUlEeCx4bXA6aWlkOjA3YmUzYzAwLTYyNzAtNDk2Yy1iYjkxLWJhZDVkMGFiOTU0OHJjcmVhdGVkX2Fzc2VydGlvbnODomN1cmx4LXNlbGYjanVtYmY9YzJwYS5hc3NlcnRpb25zL2MycGEuaW5ncmVkaWVudC52M2RoYXNoWCAZ3jDIdA7AriaaAWZh9VjKEQBMBc969CeEf3+MLZeKbaJjdXJseCpzZWxmI2p1bWJmPWMycGEuYXNzZXJ0aW9ucy9jMnBhLmFjdGlvbnMudjJkaGFzaFggV8Ysa8MhouXzeXDB/9FSLOU8/xA698ziJXGcjvz3xaiiY3VybHgpc2VsZiNqdW1iZj1jMnBhLmFzc2VydGlvbnMvYzJwYS5oYXNoLmRhdGFkaGFzaFggKZNkqS40Eu0TjfNsq/e2Z2TU+j/131giJ8KrVGfj9OV0Y2xhaW1fZ2VuZXJhdG9yX2luZm+jZG5hbWVvQW50aHJvcGljIEZpbGVzZ3ZlcnNpb25lMS4wLjBrc3BlY1ZlcnNpb25lMi40LjAAABA4anVtYgAAAChqdW1kYzJjcwARABCAAACqADibcQNjMnBhLnNpZ25hdHVyZQAAABAIY2JvctKEWQISogEmGCFZAgowggIGMIIBjaADAgECAhRA5aAK7sI50L64g/oGQgU9Z1UTADAKBggqhkjOPQQDAzBJMRcwFQYDVQQKEw5BbnRocm9waWMsIFBCQzEuMCwGA1UEAxMlQW50aHJvcGljIENvbnRlbnQgQ3JlZGVudGlhbHMgUm9vdCBDQTAeFw0yNjA4MDcxODQzNTZaFw0yODA4MDYxOTQzNTZaMEQxFzAVBgNVBAoTDkFudGhyb3BpYywgUEJDMSkwJwYDVQQDEyBBbnRocm9waWMgQ2xhdWRlIENvbnRlbnQgU2lnbmluZzBZMBMGByqGSM49AgEGCCqGSM49AwEHA0IABJh6CmvLUBgFFNU0vUKlOVtE6djd17L5SuwX0LemFisBM3dkd/3cyjxFA3Qo5S46fX0/ihY0VZ7mfb9KF703t5OjWDBWMA4GA1UdDwEB/wQEAwIHgDAVBgNVHSUEDjAMBgorBgEEAYPoXgIBMAwGA1UdEwEB/wQCMAAwHwYDVR0jBBgwFoAUzlHiBIFOZFsj+OPEz5o+nMHXXMIwCgYIKoZIzj0EAwMDZwAwZAIwMXMdFJ4BetLLVY7ORuE9noqbbAZOZn/aArXyTwFAZfKrPzxF2vPoJNf1+UCdg1XGAjBwX1zd9WGqYkqmL5SFqw1QySjr1zJfpJM9+1rdDwSPLMOPOjKuiXjoU/pUUeG9RwmhY3BhZFkNngAAAAAAAAAAAAAAAAAAAAAAAAAAAAAAAAAAAAAAAAAAAAAAAAAAAAAAAAAAAAAAAAAAAAAAAAAAAAAAAAAAAAAAAAAAAAAAAAAAAAAAAAAAAAAAAAAAAAAAAAAAAAAAAAAAAAAAAAAAAAAAAAAAAAAAAAAAAAAAAAAAAAAAAAAAAAAAAAAAAAAAAAAAAAAAAAAAAAAAAAAAAAAAAAAAAAAAAAAAAAAAAAAAAAAAAAAAAAAAAAAAAAAAAAAAAAAAAAAAAAAAAAAAAAAAAAAAAAAAAAAAAAAAAAAAAAAAAAAAAAAAAAAAAAAAAAAAAAAAAAAAAAAAAAAAAAAAAAAAAAAAAAAAAAAAAAAAAAAAAAAAAAAAAAAAAAAAAAAAAAAAAAAAAAAAAAAAAAAAAAAAAAAAAAAAAAAAAAAAAAAAAAAAAAAAAAAAAAAAAAAAAAAAAAAAAAAAAAAAAAAAAAAAAAAAAAAAAAAAAAAAAAAAAAAAAAAAAAAAAAAAAAAAAAAAAAAAAAAAAAAAAAAAAAAAAAAAAAAAAAAAAAAAAAAAAAAAAAAAAAAAAAAAAAAAAAAAAAAAAAAAAAAAAAAAAAAAAAAAAAAAAAAAAAAAAAAAAAAAAAAAAAAAAAAAAAAAAAAAAAAAAAAAAAAAAAAAAAAAAAAAAAAAAAAAAAAAAAAAAAAAAAAAAAAAAAAAAAAAAAAAAAAAAAAAAAAAAAAAAAAAAAAAAAAAAAAAAAAAAAAAAAAAAAAAAAAAAAAAAAAAAAAAAAAAAAAAAAAAAAAAAAAAAAAAAAAAAAAAAAAAAAAAAAAAAAAAAAAAAAAAAAAAAAAAAAAAAAAAAAAAAAAAAAAAAAAAAAAAAAAAAAAAAAAAAAAAAAAAAAAAAAAAAAAAAAAAAAAAAAAAAAAAAAAAAAAAAAAAAAAAAAAAAAAAAAAAAAAAAAAAAAAAAAAAAAAAAAAAAAAAAAAAAAAAAAAAAAAAAAAAAAAAAAAAAAAAAAAAAAAAAAAAAAAAAAAAAAAAAAAAAAAAAAAAAAAAAAAAAAAAAAAAAAAAAAAAAAAAAAAAAAAAAAAAAAAAAAAAAAAAAAAAAAAAAAAAAAAAAAAAAAAAAAAAAAAAAAAAAAAAAAAAAAAAAAAAAAAAAAAAAAAAAAAAAAAAAAAAAAAAAAAAAAAAAAAAAAAAAAAAAAAAAAAAAAAAAAAAAAAAAAAAAAAAAAAAAAAAAAAAAAAAAAAAAAAAAAAAAAAAAAAAAAAAAAAAAAAAAAAAAAAAAAAAAAAAAAAAAAAAAAAAAAAAAAAAAAAAAAAAAAAAAAAAAAAAAAAAAAAAAAAAAAAAAAAAAAAAAAAAAAAAAAAAAAAAAAAAAAAAAAAAAAAAAAAAAAAAAAAAAAAAAAAAAAAAAAAAAAAAAAAAAAAAAAAAAAAAAAAAAAAAAAAAAAAAAAAAAAAAAAAAAAAAAAAAAAAAAAAAAAAAAAAAAAAAAAAAAAAAAAAAAAAAAAAAAAAAAAAAAAAAAAAAAAAAAAAAAAAAAAAAAAAAAAAAAAAAAAAAAAAAAAAAAAAAAAAAAAAAAAAAAAAAAAAAAAAAAAAAAAAAAAAAAAAAAAAAAAAAAAAAAAAAAAAAAAAAAAAAAAAAAAAAAAAAAAAAAAAAAAAAAAAAAAAAAAAAAAAAAAAAAAAAAAAAAAAAAAAAAAAAAAAAAAAAAAAAAAAAAAAAAAAAAAAAAAAAAAAAAAAAAAAAAAAAAAAAAAAAAAAAAAAAAAAAAAAAAAAAAAAAAAAAAAAAAAAAAAAAAAAAAAAAAAAAAAAAAAAAAAAAAAAAAAAAAAAAAAAAAAAAAAAAAAAAAAAAAAAAAAAAAAAAAAAAAAAAAAAAAAAAAAAAAAAAAAAAAAAAAAAAAAAAAAAAAAAAAAAAAAAAAAAAAAAAAAAAAAAAAAAAAAAAAAAAAAAAAAAAAAAAAAAAAAAAAAAAAAAAAAAAAAAAAAAAAAAAAAAAAAAAAAAAAAAAAAAAAAAAAAAAAAAAAAAAAAAAAAAAAAAAAAAAAAAAAAAAAAAAAAAAAAAAAAAAAAAAAAAAAAAAAAAAAAAAAAAAAAAAAAAAAAAAAAAAAAAAAAAAAAAAAAAAAAAAAAAAAAAAAAAAAAAAAAAAAAAAAAAAAAAAAAAAAAAAAAAAAAAAAAAAAAAAAAAAAAAAAAAAAAAAAAAAAAAAAAAAAAAAAAAAAAAAAAAAAAAAAAAAAAAAAAAAAAAAAAAAAAAAAAAAAAAAAAAAAAAAAAAAAAAAAAAAAAAAAAAAAAAAAAAAAAAAAAAAAAAAAAAAAAAAAAAAAAAAAAAAAAAAAAAAAAAAAAAAAAAAAAAAAAAAAAAAAAAAAAAAAAAAAAAAAAAAAAAAAAAAAAAAAAAAAAAAAAAAAAAAAAAAAAAAAAAAAAAAAAAAAAAAAAAAAAAAAAAAAAAAAAAAAAAAAAAAAAAAAAAAAAAAAAAAAAAAAAAAAAAAAAAAAAAAAAAAAAAAAAAAAAAAAAAAAAAAAAAAAAAAAAAAAAAAAAAAAAAAAAAAAAAAAAAAAAAAAAAAAAAAAAAAAAAAAAAAAAAAAAAAAAAAAAAAAAAAAAAAAAAAAAAAAAAAAAAAAAAAAAAAAAAAAAAAAAAAAAAAAAAAAAAAAAAAAAAAAAAAAAAAAAAAAAAAAAAAAAAAAAAAAAAAAAAAAAAAAAAAAAAAAAAAAAAAAAAAAAAAAAAAAAAAAAAAAAAAAAAAAAAAAAAAAAAAAAAAAAAAAAAAAAAAAAAAAAAAAAAAAAAAAAAAAAAAAAAAAAAAAAAAAAAAAAAAAAAAAAAAAAAAAAAAAAAAAAAAAAAAAAAAAAAAAAAAAAAAAAAAAAAAAAAAAAAAAAAAAAAAAAAAAAAAAAAAAAAAAAAAAAAAAAAAAAAAAAAAAAAAAAAAAAAAAAAAAAAAAAAAAAAAAAAAAAAAAAAAAAAAAAAAAAAAAAAAAAAAAAAAAAAAAAAAAAAAAAAAAAAAAAAAAAAAAAAAAAAAAAAAAAAAAAAAAAAAAAAAAAAAAAAAAAAAAAAAAAAAAAAAAAAAAAAAAAAAAAAAAAAAAAAAAAAAAAAAAAAAAAAAAAAAAAAAAAAAAAAAAAAAAAAAAAAAAAAAAAAAAAAAAAAAAAAAAAAAAAAAAAAAAAAAAAAAAAAAAAAAAAAAAAAAAAAAAAAAAAAAAAAAAAAAAAAAAAAAAAAAAAAAAAAAAAAAAAAAAAAAAAAAAAAAAAAAAAAAAAAAAAAAAAAAAAAAAAAAAAAAAAAAAAAAAAAAAAAAAAAAAAAAAAAAAAAAAAAAAAAAAAAAAAAAAAAAAAAAAAAAAAAAAAAAAAAAAAAAAAAAAAAAAAAAAAAAAAAAAAAAAAAAAAAAAAAAAAAAAAAAAAAAAAAAAAAAAAAAAAAAAAAAAAAAAAAAAAAAAAAAAAAAAAAAAAAAAAAAAAAAAAAAAAAAAAAAAAAAAAAAAAAAAAAAAAAAAAAAAAAAAAAAAAAAAAAAAAAAAAAAAAAAAAAAAAAAAAAAAAAAAAAAAAAAAAAAAAAAAAAAAAAAAAAAAAAAAAAAAAAAAAAAAAAAAAAAAAAAAAAAAAAAAAAAAAAAAAAAAAAAAAAAAAAAAAAAAAAAAAAAAAAAAAAAAAAAAAAAAAAAAAAAAAAAAAAAAAAAAAAAAAAAAAAAAAAAAAAAAAAAAAAAAAAAAAAAAAAAAAAAAAAAAAAAAAAAAAAAAAAAAAAAAAAAAAAAAAAAAAAAAAAAAAAAAAAAAAAAAAAAAAAAAAAAAAAAAAAAAAAAAAAAAAAAAAAAAAAAAAAAAAAAAAAAAAAAAAAAAAAAAAAAAAAAAAAAAAAAAAAAAAAAAAAAAAAAAAAAAAAAAAAAAAAAAAAAAAAAAAAAAAAAAAAAAAAAAAAAAAAAAAAAAAAAAAAAAAAAAAAAAAAAAAAAAAAAAAAAAAAAAAAAAAAAAAAAAAAAAAAAAAAAAAAAAAAAAAAAAAAAAAAAAAAAAAAAAAAAAAAAAAAAAAAAAAAAAAAAAAAAAAAAAAAAAAAAAAAAAAAAAAAAAAAAAAAAAAAAAAAAAAAAAAAAAAAAAAAAAAAAAAAAAAAAAAAAAAAAAAAAAAAAAAAAAAAAAAAAAAAAAAAAAAAAAAAAAAAAAAAAAAAAAAAAAAAAAAAAAAAAAAAAAAAAAAAAAAAAAAAAAAAAAAAAAAAAAAAAAAAAAAAAAAAAAAAAAAAAAAAAAAAAAAAAAAAAAAAAAAAAAAAAAAAAAAAAAAAAAAAAAAAAAAAAAAAAAAAAAAAAAAAAAAAAAAAAAAAAAAAAAAAAAAAAAAAAAAAAAAAAAAAAAAAAAAAAAAAAAAAAAAAAAAAAAAAAAAAAAAAAAAAAAAAAAAAAAAAAAAAAAAAAAAAAAAAAAAAAAAAAAAAAAAAAAAAAAAAAAAAAAAAAAAAAAAAAAAAAAAAAAAAAAAAAAAAAAAAAAAAAAAAAAAAAAAAAAAAAAAAAAAAAAAAAAAAAAAAAAAAAAAAAAAAAAAAAAAAAAAAAAAAAAAAAAAAAAAAAAAAAAAAAAAAAAAAAAAAAAAAAAAAAAAAAAAAAAAAAAAAAAAAAAAAAAAAAAAAAAAAAAAAAAAAAAAAAAAAAAAAAAAAAAAAAAAAAAAAAAPZYQAZClu9i7hYmyTpkHeKkIqC82kcgp5t39ZSM4YMM3cOuBKhHCr4cE1P0Ens11sFYLOCxfO5muN6HSS349239i0Q=</c2pa:manifest></metadata>
<rect x="6" y="15" width="988" height="2" rx="1" fill="#243044"/>
<rect x="-100" y="14" width="100" height="4" rx="2" fill="#3b82f6"><animate attributeName="x" values="-100;1000" dur="5s" repeatCount="indefinite"/></rect>
<rect x="1000" y="14" width="70" height="4" rx="2" fill="#38bdf8" opacity="0.8"><animate attributeName="x" values="1000;-70" dur="7s" repeatCount="indefinite"/></rect>
<circle cx="500" cy="33" r="3" fill="#3b82f6"><animate attributeName="r" values="2;5;2" dur="2s" repeatCount="indefinite"/><animate attributeName="opacity" values="1;0.3;1" dur="2s" repeatCount="indefinite"/></circle>
<path transform="translate(384.7 48)" d="M8.63 -4.51Q8.63 -3.12 8.05 -2.1Q7.47 -1.08 6.39 -0.54Q5.3 0 3.82 0H1V-9.06H3.82Q5.3 -9.06 6.39 -8.51Q7.47 -7.96 8.05 -6.93Q8.63 -5.9 8.63 -4.51ZM7.42 -4.51Q7.42 -6.2 6.49 -7.15Q5.56 -8.1 3.82 -8.1H2.18V-0.97H3.82Q5.58 -0.97 6.5 -1.9Q7.42 -2.83 7.42 -4.51ZM10.5 -9.09Q10.5 -9.42 10.73 -9.66Q10.96 -9.89 11.3 -9.89Q11.63 -9.89 11.86 -9.66Q12.08 -9.42 12.08 -9.09Q12.08 -8.75 11.86 -8.51Q11.63 -8.28 11.3 -8.28Q10.96 -8.28 10.73 -8.51Q10.5 -8.75 10.5 -9.09ZM11.87 -7.12V0H10.69V-7.12ZM20.85 -3.12H15.16Q15.22 -2.07 15.88 -1.48Q16.54 -0.88 17.47 -0.88Q18.24 -0.88 18.75 -1.24Q19.27 -1.6 19.47 -2.2H20.75Q20.46 -1.17 19.6 -0.53Q18.74 0.12 17.47 0.12Q16.46 0.12 15.66 -0.34Q14.86 -0.79 14.4 -1.63Q13.95 -2.47 13.95 -3.57Q13.95 -4.68 14.39 -5.51Q14.83 -6.34 15.63 -6.79Q16.43 -7.24 17.47 -7.24Q18.48 -7.24 19.27 -6.8Q20.04 -6.36 20.47 -5.58Q20.89 -4.81 20.89 -3.83Q20.89 -3.5 20.85 -3.12ZM17.42 -6.24Q16.52 -6.24 15.89 -5.67Q15.26 -5.1 15.17 -4.08H19.67Q19.67 -4.76 19.37 -5.25Q19.07 -5.73 18.56 -5.99Q18.04 -6.24 17.42 -6.24ZM28.54 -5.82V-7.12H29.74V0.16Q29.74 1.13 29.32 1.89Q28.9 2.65 28.13 3.08Q27.36 3.51 26.33 3.51Q24.93 3.51 23.99 2.85Q23.05 2.18 22.88 1.04H24.05Q24.25 1.69 24.86 2.09Q25.47 2.48 26.33 2.48Q27.3 2.48 27.92 1.87Q28.54 1.26 28.54 0.16V-1.34Q28.19 -0.71 27.5 -0.3Q26.81 0.12 25.89 0.12Q24.94 0.12 24.17 -0.35Q23.39 -0.82 22.95 -1.66Q22.51 -2.51 22.51 -3.59Q22.51 -4.68 22.95 -5.51Q23.39 -6.33 24.17 -6.79Q24.94 -7.24 25.89 -7.24Q26.81 -7.24 27.51 -6.84Q28.2 -6.43 28.54 -5.82ZM26.12 -6.21Q25.46 -6.21 24.91 -5.9Q24.37 -5.59 24.04 -4.99Q23.72 -4.39 23.72 -3.59Q23.72 -2.77 24.04 -2.16Q24.37 -1.56 24.91 -1.24Q25.46 -0.92 26.12 -0.92Q26.78 -0.92 27.34 -1.24Q27.89 -1.56 28.21 -2.16Q28.54 -2.77 28.54 -3.57Q28.54 -4.38 28.21 -4.98Q27.89 -5.58 27.34 -5.9Q26.78 -6.21 26.12 -6.21ZM31.8 -3.57Q31.8 -4.67 32.27 -5.51Q32.74 -6.34 33.56 -6.79Q34.38 -7.24 35.4 -7.24Q36.41 -7.24 37.23 -6.79Q38.05 -6.34 38.52 -5.51Q39 -4.68 39 -3.57Q39 -2.47 38.51 -1.63Q38.02 -0.79 37.19 -0.34Q36.36 0.12 35.34 0.12Q34.34 0.12 33.53 -0.34Q32.72 -0.79 32.26 -1.63Q31.8 -2.47 31.8 -3.57ZM37.79 -3.57Q37.79 -4.43 37.45 -5.03Q37.11 -5.63 36.57 -5.92Q36.02 -6.21 35.38 -6.21Q34.73 -6.21 34.19 -5.92Q33.66 -5.63 33.33 -5.03Q33 -4.43 33 -3.57Q33 -2.7 33.32 -2.11Q33.64 -1.51 34.17 -1.22Q34.71 -0.92 35.34 -0.92Q35.98 -0.92 36.54 -1.22Q37.1 -1.52 37.44 -2.12Q37.79 -2.72 37.79 -3.57ZM51.89 -6.43Q51.52 -7.23 50.8 -7.66Q50.09 -8.1 49.14 -8.1Q48.19 -8.1 47.43 -7.66Q46.67 -7.23 46.23 -6.42Q45.8 -5.6 45.8 -4.54Q45.8 -3.47 46.23 -2.67Q46.67 -1.86 47.43 -1.42Q48.19 -0.99 49.14 -0.99Q50.46 -0.99 51.32 -1.78Q52.18 -2.57 52.32 -3.93H48.71V-4.89H53.58V-3.98Q53.48 -2.86 52.88 -1.93Q52.28 -1 51.31 -0.46Q50.33 0.08 49.14 0.08Q47.88 0.08 46.84 -0.51Q45.8 -1.1 45.19 -2.16Q44.59 -3.21 44.59 -4.54Q44.59 -5.86 45.19 -6.92Q45.8 -7.98 46.84 -8.57Q47.88 -9.16 49.14 -9.16Q50.58 -9.16 51.69 -8.45Q52.8 -7.73 53.31 -6.43ZM55.2 -3.57Q55.2 -4.67 55.68 -5.51Q56.15 -6.34 56.97 -6.79Q57.79 -7.24 58.8 -7.24Q59.82 -7.24 60.63 -6.79Q61.45 -6.34 61.93 -5.51Q62.4 -4.68 62.4 -3.57Q62.4 -2.47 61.92 -1.63Q61.43 -0.79 60.6 -0.34Q59.76 0.12 58.75 0.12Q57.75 0.12 56.94 -0.34Q56.12 -0.79 55.66 -1.63Q55.2 -2.47 55.2 -3.57ZM61.19 -3.57Q61.19 -4.43 60.86 -5.03Q60.52 -5.63 59.97 -5.92Q59.43 -6.21 58.79 -6.21Q58.14 -6.21 57.6 -5.92Q57.06 -5.63 56.73 -5.03Q56.41 -4.43 56.41 -3.57Q56.41 -2.7 56.73 -2.11Q57.05 -1.51 57.58 -1.22Q58.11 -0.92 58.75 -0.92Q59.39 -0.92 59.95 -1.22Q60.5 -1.52 60.85 -2.12Q61.19 -2.72 61.19 -3.57ZM70.85 -4.2V0H69.68V-4.03Q69.68 -5.1 69.14 -5.66Q68.61 -6.23 67.69 -6.23Q66.75 -6.23 66.2 -5.64Q65.65 -5.06 65.65 -3.94V0H64.46V-7.12H65.65V-6.11Q66 -6.66 66.6 -6.96Q67.21 -7.25 67.93 -7.25Q69.23 -7.25 70.04 -6.47Q70.85 -5.68 70.85 -4.2ZM74.17 -0.97H77.66V0H72.81V-0.97L76.27 -6.16H72.84V-7.12H77.64V-6.16ZM82.64 -7.24Q83.57 -7.24 84.26 -6.84Q84.95 -6.43 85.29 -5.82V-7.12H86.48V0H85.29V-1.33Q84.94 -0.7 84.24 -0.29Q83.55 0.12 82.62 0.12Q81.67 0.12 80.91 -0.35Q80.14 -0.82 79.7 -1.66Q79.26 -2.51 79.26 -3.59Q79.26 -4.68 79.7 -5.51Q80.14 -6.33 80.91 -6.79Q81.69 -7.24 82.64 -7.24ZM82.87 -6.21Q82.21 -6.21 81.66 -5.9Q81.12 -5.59 80.79 -4.99Q80.47 -4.39 80.47 -3.59Q80.47 -2.77 80.79 -2.16Q81.12 -1.56 81.66 -1.24Q82.21 -0.92 82.87 -0.92Q83.53 -0.92 84.09 -1.24Q84.64 -1.56 84.96 -2.16Q85.29 -2.77 85.29 -3.57Q85.29 -4.38 84.96 -4.98Q84.64 -5.58 84.09 -5.9Q83.53 -6.21 82.87 -6.21ZM90.17 -9.62V0H88.99V-9.62ZM99.14 -3.12H93.45Q93.52 -2.07 94.17 -1.48Q94.83 -0.88 95.76 -0.88Q96.53 -0.88 97.05 -1.24Q97.56 -1.6 97.77 -2.2H99.04Q98.75 -1.17 97.9 -0.53Q97.04 0.12 95.76 0.12Q94.75 0.12 93.95 -0.34Q93.15 -0.79 92.7 -1.63Q92.24 -2.47 92.24 -3.57Q92.24 -4.68 92.68 -5.51Q93.13 -6.34 93.93 -6.79Q94.72 -7.24 95.76 -7.24Q96.78 -7.24 97.56 -6.8Q98.34 -6.36 98.76 -5.58Q99.18 -4.81 99.18 -3.83Q99.18 -3.5 99.14 -3.12ZM95.71 -6.24Q94.82 -6.24 94.19 -5.67Q93.55 -5.1 93.46 -4.08H97.96Q97.96 -4.76 97.66 -5.25Q97.36 -5.73 96.85 -5.99Q96.34 -6.24 95.71 -6.24ZM102.13 -0.97H105.62V0H100.78V-0.97L104.23 -6.16H100.8V-7.12H105.6V-6.16ZM115.21 -4.43Q115.21 -4.77 115.45 -5Q115.68 -5.24 116.02 -5.24Q116.34 -5.24 116.57 -5Q116.8 -4.77 116.8 -4.43Q116.8 -4.09 116.57 -3.86Q116.34 -3.63 116.02 -3.63Q115.68 -3.63 115.45 -3.86Q115.21 -4.09 115.21 -4.43ZM138.19 -9.06 135.56 0H134.24L132.13 -7.29L129.95 0L128.63 0.01L126.1 -9.06H127.36L129.33 -1.38L131.52 -9.06H132.84L134.92 -1.4L136.91 -9.06ZM146.45 -3.12H140.75Q140.82 -2.07 141.48 -1.48Q142.13 -0.88 143.07 -0.88Q143.84 -0.88 144.35 -1.24Q144.86 -1.6 145.07 -2.2H146.34Q146.06 -1.17 145.2 -0.53Q144.34 0.12 143.07 0.12Q142.05 0.12 141.25 -0.34Q140.46 -0.79 140 -1.63Q139.55 -2.47 139.55 -3.57Q139.55 -4.68 139.99 -5.51Q140.43 -6.34 141.23 -6.79Q142.03 -7.24 143.07 -7.24Q144.08 -7.24 144.86 -6.8Q145.64 -6.36 146.06 -5.58Q146.49 -4.81 146.49 -3.83Q146.49 -3.5 146.45 -3.12ZM143.02 -6.24Q142.12 -6.24 141.49 -5.67Q140.86 -5.1 140.77 -4.08H145.27Q145.27 -4.76 144.97 -5.25Q144.67 -5.73 144.15 -5.99Q143.64 -6.24 143.02 -6.24ZM152.4 -7.24Q153.36 -7.24 154.12 -6.79Q154.89 -6.33 155.33 -5.51Q155.78 -4.68 155.78 -3.59Q155.78 -2.51 155.33 -1.66Q154.89 -0.82 154.12 -0.35Q153.34 0.12 152.4 0.12Q151.47 0.12 150.78 -0.29Q150.08 -0.69 149.73 -1.31V0H148.55V-9.62H149.73V-5.8Q150.09 -6.43 150.8 -6.84Q151.5 -7.24 152.4 -7.24ZM152.15 -6.21Q151.5 -6.21 150.95 -5.9Q150.39 -5.58 150.06 -4.97Q149.73 -4.37 149.73 -3.57Q149.73 -2.77 150.06 -2.16Q150.39 -1.56 150.95 -1.24Q151.5 -0.92 152.15 -0.92Q152.81 -0.92 153.36 -1.24Q153.92 -1.56 154.24 -2.16Q154.57 -2.77 154.57 -3.59Q154.57 -4.39 154.24 -4.99Q153.92 -5.59 153.36 -5.9Q152.81 -6.21 152.15 -6.21ZM169.44 -4.51Q169.44 -3.12 168.86 -2.1Q168.28 -1.08 167.19 -0.54Q166.11 0 164.63 0H161.81V-9.06H164.63Q166.11 -9.06 167.19 -8.51Q168.28 -7.96 168.86 -6.93Q169.44 -5.9 169.44 -4.51ZM168.23 -4.51Q168.23 -6.2 167.3 -7.15Q166.37 -8.1 164.63 -8.1H162.99V-0.97H164.63Q166.38 -0.97 167.31 -1.9Q168.23 -2.83 168.23 -4.51ZM177.96 -3.12H172.26Q172.33 -2.07 172.99 -1.48Q173.64 -0.88 174.58 -0.88Q175.35 -0.88 175.86 -1.24Q176.37 -1.6 176.58 -2.2H177.85Q177.57 -1.17 176.71 -0.53Q175.85 0.12 174.58 0.12Q173.56 0.12 172.76 -0.34Q171.97 -0.79 171.51 -1.63Q171.06 -2.47 171.06 -3.57Q171.06 -4.68 171.5 -5.51Q171.94 -6.34 172.74 -6.79Q173.54 -7.24 174.58 -7.24Q175.59 -7.24 176.37 -6.8Q177.15 -6.36 177.57 -5.58Q178 -4.81 178 -3.83Q178 -3.5 177.96 -3.12ZM174.53 -6.24Q173.63 -6.24 173 -5.67Q172.37 -5.1 172.28 -4.08H176.78Q176.78 -4.76 176.48 -5.25Q176.18 -5.73 175.66 -5.99Q175.15 -6.24 174.53 -6.24ZM182.71 -1.09 184.92 -7.12H186.18L183.39 0H182.01L179.21 -7.12H180.49ZM194.31 -3.12H188.62Q188.68 -2.07 189.34 -1.48Q190 -0.88 190.93 -0.88Q191.7 -0.88 192.21 -1.24Q192.73 -1.6 192.93 -2.2H194.21Q193.92 -1.17 193.06 -0.53Q192.21 0.12 190.93 0.12Q189.92 0.12 189.12 -0.34Q188.32 -0.79 187.86 -1.63Q187.41 -2.47 187.41 -3.57Q187.41 -4.68 187.85 -5.51Q188.29 -6.34 189.09 -6.79Q189.89 -7.24 190.93 -7.24Q191.95 -7.24 192.73 -6.8Q193.51 -6.36 193.93 -5.58Q194.35 -4.81 194.35 -3.83Q194.35 -3.5 194.31 -3.12ZM190.88 -6.24Q189.98 -6.24 189.35 -5.67Q188.72 -5.1 188.63 -4.08H193.13Q193.13 -4.76 192.83 -5.25Q192.53 -5.73 192.02 -5.99Q191.5 -6.24 190.88 -6.24ZM197.59 -9.62V0H196.41V-9.62ZM199.67 -3.57Q199.67 -4.67 200.14 -5.51Q200.62 -6.34 201.43 -6.79Q202.25 -7.24 203.27 -7.24Q204.28 -7.24 205.1 -6.79Q205.92 -6.34 206.39 -5.51Q206.87 -4.68 206.87 -3.57Q206.87 -2.47 206.38 -1.63Q205.89 -0.79 205.06 -0.34Q204.23 0.12 203.22 0.12Q202.21 0.12 201.4 -0.34Q200.59 -0.79 200.13 -1.63Q199.67 -2.47 199.67 -3.57ZM205.66 -3.57Q205.66 -4.43 205.32 -5.03Q204.98 -5.63 204.44 -5.92Q203.89 -6.21 203.25 -6.21Q202.6 -6.21 202.06 -5.92Q201.53 -5.63 201.2 -5.03Q200.88 -4.43 200.88 -3.57Q200.88 -2.7 201.19 -2.11Q201.51 -1.51 202.05 -1.22Q202.58 -0.92 203.22 -0.92Q203.85 -0.92 204.41 -1.22Q204.97 -1.52 205.31 -2.12Q205.66 -2.72 205.66 -3.57ZM212.78 -7.24Q213.73 -7.24 214.5 -6.79Q215.27 -6.33 215.71 -5.51Q216.16 -4.68 216.16 -3.59Q216.16 -2.51 215.71 -1.66Q215.27 -0.82 214.5 -0.35Q213.73 0.12 212.78 0.12Q211.87 0.12 211.17 -0.29Q210.48 -0.7 210.11 -1.31V3.38H208.93V-7.12H210.11V-5.81Q210.46 -6.42 211.16 -6.83Q211.85 -7.24 212.78 -7.24ZM212.53 -6.21Q211.88 -6.21 211.33 -5.9Q210.77 -5.58 210.44 -4.97Q210.11 -4.37 210.11 -3.57Q210.11 -2.77 210.44 -2.16Q210.77 -1.56 211.33 -1.24Q211.88 -0.92 212.53 -0.92Q213.19 -0.92 213.74 -1.24Q214.3 -1.56 214.62 -2.16Q214.95 -2.77 214.95 -3.59Q214.95 -4.39 214.62 -4.99Q214.3 -5.59 213.74 -5.9Q213.19 -6.21 212.53 -6.21ZM224.68 -3.12H218.98Q219.05 -2.07 219.7 -1.48Q220.36 -0.88 221.3 -0.88Q222.06 -0.88 222.58 -1.24Q223.09 -1.6 223.3 -2.2H224.57Q224.29 -1.17 223.43 -0.53Q222.57 0.12 221.3 0.12Q220.28 0.12 219.48 -0.34Q218.68 -0.79 218.23 -1.63Q217.77 -2.47 217.77 -3.57Q217.77 -4.68 218.22 -5.51Q218.66 -6.34 219.46 -6.79Q220.26 -7.24 221.3 -7.24Q222.31 -7.24 223.09 -6.8Q223.87 -6.36 224.29 -5.58Q224.72 -4.81 224.72 -3.83Q224.72 -3.5 224.68 -3.12ZM221.25 -6.24Q220.35 -6.24 219.72 -5.67Q219.09 -5.1 219 -4.08H223.49Q223.49 -4.76 223.2 -5.25Q222.9 -5.73 222.38 -5.99Q221.87 -6.24 221.25 -6.24ZM230.26 -7.25V-6.03H229.95Q227.96 -6.03 227.96 -3.87V0H226.78V-7.12H227.96V-5.97Q228.27 -6.58 228.85 -6.92Q229.43 -7.25 230.26 -7.25Z" fill="#8b949e" /></svg>